<?xml version="1.0" standalone="no"?><!DOCTYPE svg PUBLIC "-//W3C//DTD SVG 1.1//EN" "http://www.w3.org/Graphics/SVG/1.1/DTD/svg11.dtd"><svg t="1504841237615" class="icon" style="" viewBox="0 0 1024 1024" version="1.1" xmlns="http://www.w3.org/2000/svg" p-id="2416" xmlns:xlink="http://www.w3.org/1999/xlink" width="48" height="48"><defs><style type="text/css"></style></defs><path d="M77.837274 510.771009c0-239.774969 194.406688-434.164261 434.161191-434.164261 239.757572 0 434.164261 194.389292 434.164261 434.164261 0 239.774969-194.406688 434.142771-434.164261 434.142771C272.243963 944.91378 77.837274 750.545978 77.837274 510.771009L77.837274 510.771009zM1.230526 510.771009c0 282.089703 228.698702 510.772033 510.767939 510.772033 282.072307 0 510.771009-228.682329 510.771009-510.772033C1022.769474 228.677213 794.070772 0 511.998465 0 229.929228 0 1.230526 228.677213 1.230526 510.771009L1.230526 510.771009zM266.341532 587.378781c-28.222785 0-45.766346 22.444175-34.251082 48.195675 47.759747 107.054201 155.125033 181.667549 279.908014 181.667549 124.781958 0 232.109382-74.613348 279.911084-181.667549 11.512195-25.7515-6.028297-48.195675-34.251082-48.195675l-28.845978 0C697.301821 676.639734 612.093161 740.612745 511.998465 740.612745c-100.092649 0-185.303356-63.97301-216.810954-153.233963L266.341532 587.378781 266.341532 587.378781zM614.170472 383.076722c0 28.205389 22.861684 51.065026 51.04149 51.065026 28.226878 0 51.086515-22.859637 51.086515-51.065026 0-28.202319-22.859637-51.082422-51.086515-51.082422C637.032156 331.9943 614.170472 354.874403 614.170472 383.076722L614.170472 383.076722zM307.700499 383.076722c0 28.205389 22.86066 51.065026 51.083445 51.065026 28.183899 0 51.04456-22.859637 51.04456-51.065026 0-28.202319-22.86066-51.082422-51.04456-51.082422C330.56116 331.9943 307.700499 354.874403 307.700499 383.076722L307.700499 383.076722z" p-id="2417" fill="#707070"></path></svg>