<?xml version="1.0" standalone="no"?><!DOCTYPE svg PUBLIC "-//W3C//DTD SVG 1.1//EN" "http://www.w3.org/Graphics/SVG/1.1/DTD/svg11.dtd"><svg t="1486980708714" class="icon" style="" viewBox="0 0 1024 1024" version="1.1" xmlns="http://www.w3.org/2000/svg" p-id="2955" xmlns:xlink="http://www.w3.org/1999/xlink" width="24" height="24"><defs><style type="text/css"></style></defs><path d="M1015.1936 513.365333 536.257422 9.693867c-6.052978-6.303289-14.336-9.875911-23.051378-9.875911-8.692622 0-16.9984 3.549867-23.028622 9.875911L8.738133 513.342578c-12.196978 12.765867-11.787378 33.018311 0.932978 45.283556 12.720356 12.242489 32.881778 11.8784 45.124267-0.932978l42.894222-44.873956 0 479.277511c0 17.703822 14.290489 32.017067 31.903289 32.017067l222.890667 0c17.567289 0 31.835022-14.267733 31.903289-31.926044l1.001244-319.965867 254.225067 0 0 319.874844c0 17.703822 14.290489 32.017067 31.903289 32.017067l222.8224 0c17.6128 0 31.903289-14.313244 31.903289-32.017067l0-479.459556 42.871467 45.078756c6.257778 6.530844 14.631822 9.875911 23.028622 9.875911 7.941689-0.045511 15.906133-2.980978 22.095644-8.965689C1026.980978 546.4064 1027.367822 526.108444 1015.1936 513.365333zM862.481067 454.724267l0 505.309867-159.015822 0L703.465244 640.2048c0-17.703822-14.267733-32.039822-31.903289-32.039822L353.621333 608.164978c-17.567289 0-31.835022 14.267733-31.903289 31.926044l-1.001244 319.965867L161.496178 960.056889 161.496178 454.724267c0-2.639644-0.4096-5.165511-1.001244-7.600356L513.2288 78.119822 863.618844 446.691556C862.958933 449.285689 862.481067 451.948089 862.481067 454.724267z" p-id="2956"></path></svg>