<?xml version="1.0" standalone="no"?><!DOCTYPE svg PUBLIC "-//W3C//DTD SVG 1.1//EN" "http://www.w3.org/Graphics/SVG/1.1/DTD/svg11.dtd"><svg t="1488166144212" class="icon" style="" viewBox="0 0 1024 1024" version="1.1" xmlns="http://www.w3.org/2000/svg" p-id="3016" xmlns:xlink="http://www.w3.org/1999/xlink" width="24" height="24"><defs><style type="text/css"></style></defs><path d="M335.018479 1007.674708c-39.605204 0-71.84935-32.244146-71.84935-71.84935s32.244146-71.84935 71.84935-71.84935c39.650364 0 71.894509 32.244146 71.894509 71.84935S374.668842 1007.674708 335.018479 1007.674708z" p-id="3017" fill="#f84d4d"></path><path d="M829.49645 1007.674708c-39.627784 0-71.871929-32.244146-71.871929-71.84935s32.244146-71.84935 71.871929-71.84935c39.650364 0 71.917089 32.244146 71.917089 71.84935S869.124234 1007.674708 829.49645 1007.674708z" p-id="3018" fill="#f84d4d"></path><path d="M325.896185 831.054465c-51.459669 0-96.755017-40.711621-103.054818-92.668049L162.936803 316.796472 128.795943 119.42527C126.854068 103.461257 111.951312 89.348798 96.913076 89.348798L51.911268 89.348798c-20.141301 0-36.534333-16.393032-36.534333-36.534333 0-20.141301 16.415612-36.511753 36.534333-36.511753l45.001808 0c52.046748 0 97.816273 40.643881 104.183815 92.532569l34.07312 196.580904 60.152944 423.622139c1.828975 15.354355 16.122073 28.970055 30.57323 28.970055l573.710959 0c20.141301 0 36.511753 16.415612 36.511753 36.556913 0 20.118721-16.393032 36.466593-36.511753 36.466593L325.896185 831.031885z" p-id="3019" fill="#f84d4d"></path><path d="M370.039956 689.794399c-19.012304 0-35.021477-14.857596-36.376273-33.869901-0.722558-9.709372 2.370893-19.147784 8.783594-26.554002 6.299802-7.361058 15.196295-11.809305 24.928247-12.531863l479.371996-35.315017c16.483352-0.13548 31.047409-12.712503 32.989283-28.586196l55.614377-318.128688c1.399956-12.170584-2.032194-24.634708-8.625535-32.131246-4.290187-4.877266-9.709372-7.361058-16.031753-7.361058L299.161544 195.316428c-20.163881 0-36.556913-16.393032-36.556913-36.534333s16.415612-36.534333 36.556913-36.534333l611.532348 0c27.32172 0 52.453186 11.357707 70.742933 31.995766 20.863859 23.528291 30.415171 56.698214 26.215303 91.042293l-55.659537 318.173848c-3.048291 24.612128-15.241455 47.372701-34.366659 64.443131-19.238104 17.07043-43.443793 26.508842-68.1914 26.599162l-476.707563 35.202117L370.039956 689.794399z" p-id="3020" fill="#f84d4d"></path></svg>