<?xml version="1.0" standalone="no"?><!DOCTYPE svg PUBLIC "-//W3C//DTD SVG 1.1//EN" "http://www.w3.org/Graphics/SVG/1.1/DTD/svg11.dtd"><svg t="1490007164549" class="icon" style="" viewBox="0 0 1024 1024" version="1.1" xmlns="http://www.w3.org/2000/svg" p-id="2734" xmlns:xlink="http://www.w3.org/1999/xlink" width="16" height="16"><defs><style type="text/css"></style></defs><path d="M808.640419 1024 215.404278 1024C155.868354 1024 107.595984 975.839371 107.595984 916.459887L107.595984 200.620864C107.595984 141.241379 155.868354 93.080751 215.404278 93.080751L232.031427 93.080751 232.031427 31.019467C232.031427 13.878306 245.95443 0 263.140288 0 280.326146 0 294.249149 13.878306 294.249149 31.019467L294.249149 93.080751 403.130162 93.080751 403.130162 31.019467C403.130162 13.878306 417.075513 0 434.239022 0 451.42488 0 465.370231 13.878306 465.370231 31.019467L465.370231 93.080751 574.251244 93.080751 574.251244 31.019467C574.251244 13.878306 588.174247 0 605.360105 0 622.545962 0 636.468966 13.878306 636.468966 31.019467L636.468966 93.080751 745.349978 93.080751 745.349978 31.019467C745.349978 13.878306 759.272981 0 776.458839 0 793.644697 0 807.5677 13.878306 807.5677 31.019467L807.5677 93.080751 808.640419 93.080751C868.176342 93.080751 916.448712 141.241379 916.448712 200.620864L916.448712 916.459887C916.448712 975.839371 868.176342 1024 808.640419 1024ZM215.404278 961.938717 808.640419 961.938717C833.826975 961.938717 854.230991 941.579398 854.230991 916.459887L854.230991 387.877433 169.813706 387.877433 169.813706 916.459887C169.813706 941.579398 190.24007 961.938717 215.404278 961.938717ZM808.640419 155.142034 807.5677 155.142034 807.5677 232.713051C807.5677 249.854212 793.644697 263.754867 776.458839 263.754867 759.272981 263.754867 745.349978 249.854212 745.349978 232.713051L745.349978 155.142034 636.468966 155.142034 636.468966 232.713051C636.468966 249.854212 622.545962 263.754867 605.360105 263.754867 588.174247 263.754867 574.251244 249.854212 574.251244 232.713051L574.251244 155.142034 465.370231 155.142034 465.370231 232.713051C465.370231 249.854212 451.42488 263.754867 434.239022 263.754867 417.075513 263.754867 403.130162 249.854212 403.130162 232.713051L403.130162 155.142034 294.249149 155.142034 294.249149 232.713051C294.249149 249.854212 280.326146 263.754867 263.140288 263.754867 245.95443 263.754867 232.031427 249.854212 232.031427 232.713051L232.031427 155.142034 215.404278 155.142034C190.24007 155.142034 169.813706 175.501353 169.813706 200.620864L169.813706 356.835618 854.230991 356.835618 854.230991 200.620864C854.230991 175.501353 833.826975 155.142034 808.640419 155.142034ZM482.779572 884.3677 737.907988 884.3677C762.468791 884.3677 776.458839 855.024356 776.458839 809.657268L776.458839 760.245133C776.458839 751.663378 783.431515 744.735399 792.013269 744.735399 800.595024 744.735399 807.5677 751.663378 807.5677 760.245133L807.5677 809.657268C807.5677 873.886338 781.353121 915.387167 737.907988 915.387167L482.779572 915.387167C474.175469 915.387167 467.202794 908.459188 467.202794 899.877433 467.202794 891.295679 474.175469 884.3677 482.779572 884.3677ZM795.72309 697.401659C791.678045 697.401659 787.655347 695.837276 784.683021 692.909646 781.889481 690.116107 780.16866 686.071061 780.16866 681.891925 780.16866 677.846879 781.889481 673.824182 784.683021 671.030642 790.605325 665.287124 800.863204 665.130685 806.76316 670.874203 809.579048 673.824182 811.277521 677.846879 811.277521 681.891925 811.277521 685.914622 809.579048 689.959668 806.76316 692.909646 803.813182 695.837276 799.790485 697.401659 795.72309 697.401659Z" p-id="2735"></path></svg>